<svg xmlns="http://www.w3.org/2000/svg" width="256" height="256"><path fill-opacity=".016" d="M0 128.004v128.004l128.25-.254 128.25-.254.254-127.75L257.008 0H0v128.004m.485.496c0 70.4.119 99.053.265 63.672.146-35.38.146-92.98 0-128C.604 29.153.485 58.1.485 128.5" fill="#212121" fill-rule="evenodd"/><path fill-opacity=".183" d="M46.492 57.797c-9.834 3.401-16.929 11.02-19.956 21.43-1.423 4.896-1.593 11.437-1.333 51.441L25.5 176.5l2.78 5.661c3.053 6.216 8.305 11.511 14.925 15.046L47.5 199.5h55c54.77 0 55.017-.009 59.116-2.202 12.48-6.676 17.258-15.049 18.31-32.085l.574-9.287 11 10.111c6.05 5.561 12.125 10.698 13.5 11.416 8.971 4.686 20.038 1.078 24.095-7.854 1.707-3.761 1.863-7.19 1.883-41.533.021-35.986-.059-37.602-2.074-41.764-2.859-5.906-8.702-9.303-15.992-9.298-6.799.004-8.566 1.103-21.912 13.62l-10.5 9.847-.624-10.258c-.798-13.123-4.351-21.171-12.025-27.237-8.8-6.956-9.031-6.98-65.783-6.943-45.308.029-51.089.212-55.576 1.764m5.837 20.661c-1.744.758-3.657 2.286-4.25 3.395C47.353 83.208 47 98.452 47 128.378v44.51l2.413 2.806 2.414 2.806h101.346l2.414-2.806 2.413-2.806v-44.51c0-29.971-.353-45.169-1.08-46.528-2.488-4.648-4.813-4.853-54.638-4.811-37.501.032-47.411.313-49.953 1.419m150.66 29.812c-3.03 2.877-9.076 8.57-13.435 12.653l-7.924 7.423 4.091 3.577c2.25 1.967 8.633 7.789 14.185 12.937L210 154.22v-25.61c0-14.086-.338-25.601-.75-25.59-.412.011-3.23 2.374-6.261 5.25" fill="#212121" fill-rule="evenodd"/><path fill-opacity=".649" d="M50.344 57.016c-6.465 1.319-11.661 4.431-16.636 9.964-7.906 8.793-7.821 8.08-7.495 63.139.285 48.034.303 48.411 2.544 52.604 3.21 6.008 8.686 11.123 15.157 14.157l5.586 2.62h106l5.589-2.621C173.612 191.006 179 181.405 179 164.962c0-5.479.263-9.962.585-9.962.321 0 5.53 4.613 11.575 10.25 12.533 11.689 15.626 13.649 21.622 13.708 8.228.081 15.062-4.893 17.119-12.458.691-2.539 1.074-16.784 1.05-39-.041-36.653-.386-40.007-4.606-44.673-4.915-5.434-14.451-7.366-20.645-4.182-1.76.905-8.203 6.305-14.318 12C185.268 96.34 179.98 101 179.632 101c-.347 0-.632-4.42-.632-9.822 0-6.36-.561-11.469-1.592-14.494-2.173-6.377-9.249-13.968-16.205-17.384l-5.703-2.8-50.5-.166c-27.775-.091-52.37.216-54.656.682m-.578 22.901L46.5 82.834l-.281 43.618c-.306 47.591-.171 48.882 5.376 51.409 1.76.802 16.971 1.139 51.436 1.139h48.937l3.266-2.918 3.266-2.918V82.836l-3.266-2.918L151.968 77H53.032l-3.266 2.917m146.272 34.509c-7.405 6.792-13.608 12.783-13.784 13.313-.177.531 5.881 6.708 13.462 13.727l13.784 12.762.279-13.114c.153-7.213.153-18.946 0-26.075l-.279-12.961-13.462 12.348" fill="#212121" fill-rule="evenodd"/><path fill-opacity=".972" d="M46.703 58.425c-5.833 2.107-11.409 6.186-14.737 10.78-5.913 8.164-6.072 9.84-5.754 60.932L26.5 176.5l2.386 5.279c2.934 6.494 10.415 13.454 16.798 15.629 6.976 2.377 106.613 2.392 113.582.017 6.371-2.171 13.073-8.375 16.406-15.187 2.384-4.873 2.859-7.302 3.306-16.896l.522-11.205 12 11.062C203.931 176.659 207.622 179 213.256 179c4.32 0 11.576-3.745 14.185-7.322 1.984-2.719 2.069-4.264 2.342-42.279.252-35.038.098-39.847-1.373-42.947-2.039-4.296-5.713-7.006-11.655-8.595-7.128-1.906-11.324.275-25.314 13.162L179.5 102.018l-.522-11.282c-.447-9.663-.919-12.095-3.29-16.941-3.001-6.135-7.344-10.501-13.966-14.039-4.214-2.252-4.318-2.256-57.722-2.479-43.254-.181-54.227.039-57.297 1.148M50.75 78.08C46.142 80.764 46 82.279 46 128.728c0 48.595-.206 47.034 6.599 49.878 4.907 2.05 94.895 2.05 99.802 0 6.805-2.844 6.599-1.283 6.599-49.878 0-46.755-.133-48.124-4.945-50.698-2.624-1.405-100.89-1.357-103.305.05m144.105 36.713c-7.505 6.989-13.58 12.995-13.5 13.348.08.352 6.557 6.572 14.395 13.823L210 155.146v-26.573c0-14.615-.338-26.554-.75-26.53-.412.023-6.89 5.761-14.395 12.75" fill="#212121" fill-rule="evenodd"/></svg>